<?xml version="1.0" encoding="UTF-8" standalone="no"?>
<!-- Created with Inkscape (http://www.inkscape.org/) -->

<svg
   width="270.93332mm"
   height="270.93332mm"
   viewBox="0 0 270.93332 270.93332"
   version="1.1"
   id="svg1"
   xml:space="preserve"
   sodipodi:docname="logo_filled.svg"
   inkscape:version="1.3.2 (091e20e, 2023-11-25, custom)"
   xmlns:inkscape="http://www.inkscape.org/namespaces/inkscape"
   xmlns:sodipodi="http://sodipodi.sourceforge.net/DTD/sodipodi-0.dtd"
   xmlns="http://www.w3.org/2000/svg"
   xmlns:svg="http://www.w3.org/2000/svg"><sodipodi:namedview
     id="namedview1"
     pagecolor="#505050"
     bordercolor="#eeeeee"
     borderopacity="1"
     inkscape:showpageshadow="0"
     inkscape:pageopacity="0"
     inkscape:pagecheckerboard="false"
     inkscape:deskcolor="#505050"
     inkscape:document-units="mm"
     inkscape:lockguides="false"
     inkscape:clip-to-page="false"
     showguides="true"
     showgrid="true"
     inkscape:zoom="0.5"
     inkscape:cx="870"
     inkscape:cy="513"
     inkscape:window-width="1920"
     inkscape:window-height="991"
     inkscape:window-x="-9"
     inkscape:window-y="-9"
     inkscape:window-maximized="1"
     inkscape:current-layer="layer1"><sodipodi:guide
       position="135.4665,135.46682"
       orientation="-1,0"
       id="guide21"
       inkscape:locked="false"
       inkscape:label=""
       inkscape:color="rgb(0,134,229)" /><sodipodi:guide
       position="0,270.93332"
       orientation="0,1"
       id="guide22"
       inkscape:locked="false"
       inkscape:label=""
       inkscape:color="rgb(0,134,229)" /><sodipodi:guide
       position="270.93332,270.93332"
       orientation="-1,0"
       id="guide23"
       inkscape:locked="false"
       inkscape:label=""
       inkscape:color="rgb(0,134,229)" /><sodipodi:guide
       position="270.93332,-9.0820311e-07"
       orientation="0,1"
       id="guide24"
       inkscape:locked="false"
       inkscape:label=""
       inkscape:color="rgb(0,134,229)" /><sodipodi:guide
       position="0,0"
       orientation="-1,0"
       id="guide25"
       inkscape:locked="false"
       inkscape:label=""
       inkscape:color="rgb(0,134,229)" /><sodipodi:guide
       position="135.4665,135.46682"
       orientation="0,1"
       id="guide3"
       inkscape:locked="false"
       inkscape:label=""
       inkscape:color="rgb(0,134,229)" /></sodipodi:namedview><defs
     id="defs1"><inkscape:path-effect
       effect="copy_rotate"
       starting_point="0,0"
       origin="135.4665,117"
       id="path-effect16"
       is_visible="true"
       lpeversion="1.2"
       lpesatellites="#path6 | #path7 | #path8 | #path9"
       method="normal"
       num_copies="5"
       starting_angle="0"
       rotation_angle="72"
       gap="-0.01"
       copies_to_360="true"
       mirror_copies="false"
       split_items="true"
       link_styles="false" /><inkscape:path-effect
       effect="copy_rotate"
       starting_point="0,0"
       origin="135.47,135.47"
       id="path-effect14"
       is_visible="true"
       lpeversion="1.2"
       lpesatellites=""
       method="normal"
       num_copies="5"
       starting_angle="0"
       rotation_angle="72"
       gap="-0.01"
       copies_to_360="true"
       mirror_copies="false"
       split_items="false"
       link_styles="false" /><inkscape:path-effect
       effect="copy_rotate"
       starting_point="0,0"
       origin="135.47,135.4665"
       id="path-effect4"
       is_visible="true"
       lpeversion="1.2"
       lpesatellites="#path2 | #path3 | #path4 | #path5"
       method="normal"
       num_copies="5"
       starting_angle="0"
       rotation_angle="72"
       gap="-0.01"
       copies_to_360="true"
       mirror_copies="false"
       split_items="true"
       link_styles="false" /><inkscape:path-effect
       effect="copy_rotate"
       starting_point="138.06068,234.89207"
       origin="135.4665,135.47"
       id="path-effect3"
       is_visible="false"
       lpeversion="1.2"
       lpesatellites=""
       method="normal"
       num_copies="6"
       starting_angle="0"
       rotation_angle="60"
       gap="0"
       copies_to_360="true"
       mirror_copies="false"
       split_items="false"
       link_styles="false" /><inkscape:path-effect
       effect="copy_rotate"
       starting_point="0,0"
       origin="98.717585,234.89207"
       id="path-effect1"
       is_visible="true"
       lpeversion="1.2"
       lpesatellites=""
       method="normal"
       num_copies="5"
       starting_angle="0"
       rotation_angle="72"
       gap="0"
       copies_to_360="true"
       mirror_copies="false"
       split_items="false"
       link_styles="false" /><inkscape:path-effect
       effect="copy_rotate"
       starting_point="0,0"
       origin="90,190"
       id="path-effect25"
       is_visible="true"
       lpeversion="1.2"
       lpesatellites=""
       method="normal"
       num_copies="5"
       starting_angle="0"
       rotation_angle="72"
       gap="0"
       copies_to_360="true"
       mirror_copies="false"
       split_items="false"
       link_styles="false" /><inkscape:path-effect
       effect="copy_rotate"
       starting_point="138.06068,234.89207"
       origin="135.4665,135.47"
       id="path-effect15"
       is_visible="false"
       lpeversion="1.2"
       lpesatellites=""
       method="normal"
       num_copies="5"
       starting_angle="0"
       rotation_angle="72"
       gap="0"
       copies_to_360="true"
       mirror_copies="false"
       split_items="false"
       link_styles="false" /><inkscape:path-effect
       effect="copy_rotate"
       starting_point="138.06068,234.89207"
       origin="135.4665,135.47"
       id="path-effect11"
       is_visible="false"
       lpeversion="1.2"
       lpesatellites=""
       method="normal"
       num_copies="5"
       starting_angle="0"
       rotation_angle="72"
       gap="0"
       copies_to_360="true"
       mirror_copies="false"
       split_items="false"
       link_styles="false" /><inkscape:path-effect
       effect="knot"
       id="path-effect10"
       is_visible="true"
       lpeversion="1"
       switcher_size="15.7"
       interruption_width="3"
       prop_to_stroke_width="true"
       add_stroke_width="inkscape_1.0_and_up"
       both="false"
       inverse_width="false"
       add_other_stroke_width="inkscape_1.0_and_up"
       crossing_points_vector="" /><inkscape:path-effect
       effect="mirror_symmetry"
       start_point="177.39895,219.40396"
       end_point="177.39895,250.38018"
       center_point="177.39895,234.89207"
       id="path-effect9"
       is_visible="true"
       lpeversion="1.2"
       lpesatellites=""
       mode="free"
       discard_orig_path="false"
       fuse_paths="false"
       oposite_fuse="false"
       split_items="false"
       split_open="false"
       link_styles="false" /><inkscape:path-effect
       effect="mirror_symmetry"
       start_point="135.46667,0"
       end_point="135.46667,270.93333"
       center_point="135.46667,135.46667"
       id="path-effect8"
       is_visible="true"
       lpeversion="1.2"
       lpesatellites=""
       mode="vertical"
       discard_orig_path="false"
       fuse_paths="false"
       oposite_fuse="false"
       split_items="false"
       split_open="false"
       link_styles="false" /></defs><g
     inkscape:label="Layer 1"
     inkscape:groupmode="layer"
     id="layer1"><path
       id="path1"
       style="stroke-width:3.96875;stroke-dasharray:none;display:inline;fill:#000000;stroke:none;stroke-linecap:butt;fill-opacity:1"
       inkscape:label="circle2"
       d="M 170.94225 24.605221 C 166.62376 24.871766 162.45318 26.993122 159.7114 30.766858 C 154.83713 37.475721 156.32443 46.865957 163.03329 51.740232 C 169.74216 56.614507 173.64231 50.220149 179.76721 52.238089 C 185.89211 54.25603 194.00781 59.758789 197.80022 64.755273 C 201.59263 69.751758 196.24006 74.696701 202.94893 79.570976 C 209.65779 84.445251 219.04804 82.958466 223.92231 76.249601 C 228.79658 69.540736 227.30928 60.150502 220.60042 55.276227 C 213.89156 50.401952 209.18561 56.437033 203.14083 54.185927 C 197.09606 51.934828 189.91967 46.137441 186.26524 41.340508 C 182.6108 36.543576 187.39364 32.319241 180.68477 27.444966 C 177.74965 25.31247 174.30108 24.397908 170.94225 24.605221 z M 93.810532 26.862707 C 90.920163 26.961498 88.027006 27.894838 85.511182 29.722691 C 78.802318 34.596965 83.087948 40.937403 79.079081 45.990698 C 75.070221 51.043986 67.338998 56.077565 61.647562 58.070803 C 55.956126 60.064041 53.416823 54.210117 46.707959 59.084391 C 39.999095 63.958666 38.511451 73.34877 43.385726 80.057634 C 48.26 86.766498 57.650095 88.253625 64.358959 83.37935 C 71.067823 78.505076 66.192016 72.819887 70.00389 67.618338 C 73.815764 62.41679 81.556688 56.398524 87.480547 54.335726 C 93.404405 52.272929 96.453834 58.891915 103.1627 54.01764 C 109.87156 49.143366 111.35869 39.75327 106.48441 33.044407 C 103.43799 28.851368 98.627812 26.698056 93.810532 26.862707 z M 238.08093 125.42987 C 231.68044 125.34914 225.69802 129.39987 223.61594 135.80785 C 221.05338 143.69459 228.33964 145.42822 228.31316 151.87693 C 228.28669 158.32563 225.56163 167.74422 221.98161 172.89502 C 218.40159 178.04581 212.04422 174.48346 209.48167 182.3702 C 206.91911 190.25695 211.2354 198.72799 219.12214 201.29055 C 227.00889 203.8531 235.47941 199.53682 238.04197 191.65008 C 240.60453 183.76334 233.41082 181.15258 233.68381 174.70802 C 233.9568 168.26348 237.25256 159.64703 240.68544 154.68912 C 244.11831 149.73121 249.6142 152.97446 252.17676 145.08771 C 254.73931 137.20097 250.42303 128.73045 242.53629 126.16789 C 241.05752 125.68741 239.55797 125.4485 238.08093 125.42987 z M 33.558802 130.64531 C 32.081766 130.66394 30.582407 130.90294 29.103643 131.38342 C 21.216901 133.94598 16.900937 142.41655 19.463495 150.3033 C 22.026052 158.19004 29.380688 156.07371 32.947849 161.44793 C 36.515006 166.82213 38.913217 175.73057 39.050149 181.75939 C 39.187081 187.78822 32.83462 188.39442 35.397178 196.28116 C 37.959736 204.16791 46.430316 208.48387 54.317059 205.92131 C 62.203801 203.35875 66.520282 194.88816 63.957724 187.00142 C 61.395166 179.11468 54.48125 181.99474 50.712217 176.76207 C 46.943184 171.52939 43.612013 162.30748 43.480749 156.03612 C 43.349485 149.76476 50.586598 148.9103 48.02404 141.02355 C 45.941962 134.61558 39.959295 130.56458 33.558802 130.64531 z M 162.38362 219.40421 C 154.091 219.40421 154.69429 226.86903 148.55303 228.8366 C 142.41176 230.80418 132.61189 231.123 126.6069 229.30988 C 120.60192 227.49676 122.02531 220.35016 113.7327 220.35016 C 105.44009 220.35016 98.71753 227.07247 98.717532 235.36508 C 98.717535 243.65769 105.43984 250.38025 113.73246 250.38025 C 122.02507 250.38025 122.28548 242.73128 128.49897 240.99943 C 134.71246 239.26758 143.92559 239.73993 149.70165 241.47271 C 155.47772 243.20549 154.09127 249.43429 162.38389 249.43429 C 170.6765 249.43429 177.39905 242.71146 177.39905 234.41885 C 177.39905 226.12624 170.67623 219.40421 162.38362 219.40421 z "
       transform="rotate(1.0506173,135.45957,135.28446)" /><path
       id="path14"
       style="stroke-width:3.33827026;stroke-dasharray:none;display:inline;fill:#000000;stroke:none;stroke-linecap:butt;fill-opacity:1"
       inkscape:label="circle2"
       d="M 134.99374 19.437861 C 126.70113 19.437864 119.97848 26.160511 119.97848 34.453123 C 119.97848 42.745734 127.62726 43.005824 129.35911 49.219318 C 131.09096 55.432802 130.61897 64.646051 128.88619 70.422115 C 127.15341 76.19818 120.92476 74.811453 120.92476 83.104065 C 120.92476 91.396677 127.64698 98.119326 135.93959 98.119326 C 144.2322 98.119326 150.95485 91.396677 150.95485 83.104065 C 150.95485 74.811453 143.48964 75.414545 141.52206 69.273281 C 139.55448 63.132017 139.23559 53.332181 141.04871 47.327197 C 142.86182 41.322213 150.00857 42.745734 150.00857 34.453123 C 150.00857 26.160511 143.28636 19.437859 134.99374 19.437861 z M 213.64217 76.023715 C 212.16514 76.042345 210.666 76.281307 209.18724 76.761786 C 201.30049 79.324344 203.41693 86.678977 198.04272 90.246138 C 192.66851 93.813295 183.75981 96.211546 177.73099 96.348478 C 171.70217 96.48541 171.09626 90.132949 163.20952 92.695507 C 155.32278 95.258065 151.00683 103.72867 153.56939 111.61541 C 156.13195 119.50216 164.60256 123.81853 172.4893 121.25597 C 180.37604 118.69342 177.49573 111.77972 182.7284 108.01069 C 187.96107 104.24166 197.183 100.91034 203.45437 100.77908 C 209.72573 100.64781 210.58028 107.88481 218.46702 105.32225 C 226.35376 102.7597 230.6697 94.288652 228.10714 86.401911 C 226.02506 79.993934 220.04266 75.942986 213.64217 76.023715 z M 56.998624 76.923484 C 50.598132 76.842757 44.615298 80.893266 42.533221 87.301244 C 39.970666 95.187987 44.287038 103.65903 52.173781 106.22159 C 60.060523 108.78414 62.671383 101.59015 69.115937 101.86314 C 75.560481 102.13613 84.176786 105.43195 89.134692 108.86482 C 94.092597 112.29769 90.849388 117.79321 98.736131 120.35577 C 106.62287 122.91833 115.09348 118.60239 117.65604 110.71565 C 120.2186 102.8289 115.90266 94.357862 108.01591 91.795304 C 100.12917 89.232746 98.395714 96.519266 91.94701 96.492789 C 85.498307 96.466312 76.079742 93.740962 70.928948 90.160942 C 65.778153 86.580922 69.340305 80.223678 61.453563 77.66112 C 59.974799 77.18064 58.475661 76.942113 56.998624 76.923484 z M 115.68698 129.13655 C 110.8697 128.9719 106.05928 131.1254 103.01285 135.31844 C 98.13858 142.0273 104.53266 145.92749 102.51472 152.05239 C 100.49678 158.17729 94.993997 166.29272 89.997513 170.08513 C 85.001028 173.87754 80.05604 168.52537 75.181765 175.23424 C 70.30749 181.9431 71.794653 191.33282 78.503518 196.2071 C 85.212383 201.08137 94.602534 199.59421 99.476809 192.88534 C 104.35108 186.17648 98.315858 181.47027 100.56696 175.42549 C 102.81806 169.38072 108.61542 162.20471 113.41235 158.55028 C 118.20928 154.89584 122.43362 159.67884 127.3079 152.96998 C 132.18217 146.26111 130.69501 136.87096 123.98615 131.99668 C 121.47032 130.16883 118.57735 129.23534 115.68698 129.13655 z M 154.48046 129.69293 C 151.59009 129.79172 148.69712 130.72521 146.1813 132.55306 C 139.47243 137.42734 137.98527 146.81706 142.85954 153.52592 C 147.73382 160.23478 153.41915 155.35911 158.6207 159.17099 C 163.82225 162.98286 169.84013 170.72393 171.90293 176.64779 C 173.96573 182.57165 167.34727 185.62054 172.22154 192.3294 C 177.09582 199.03826 186.48554 200.52586 193.1944 195.65159 C 199.90326 190.77731 201.39043 181.38716 196.51615 174.6783 C 191.64188 167.96943 185.30147 172.25491 180.24817 168.24604 C 175.19488 164.23718 170.16104 156.50588 168.16781 150.81444 C 166.17457 145.12301 172.02886 142.58368 167.15459 135.87482 C 164.10817 131.68178 159.29774 129.52828 154.48046 129.69293 z "
       transform="matrix(1.1888642,0,0,1.1888642,-25.584803,-3.4212903)" /></g></svg>
