<?xml version="1.0" encoding="UTF-8" standalone="no"?>
<!-- Created with Inkscape (http://www.inkscape.org/) -->

<svg
   width="270.93332mm"
   height="270.93332mm"
   viewBox="0 0 270.93332 270.93332"
   version="1.1"
   id="svg1"
   xml:space="preserve"
   xmlns="http://www.w3.org/2000/svg"
   xmlns:svg="http://www.w3.org/2000/svg"><defs
     id="defs1" /><g
     id="layer1"><g
       id="g5"
       style="stroke-width:3.96875;stroke-dasharray:none"><path
         id="path1"
         style="display:inline;fill:none;stroke:#000000;stroke-width:3.96875;stroke-linecap:butt;stroke-dasharray:none"
         d="m 170.94225,24.605221 c -4.31849,0.266545 -8.48907,2.387901 -11.23085,6.161637 -4.87427,6.708863 -3.38697,16.099099 3.32189,20.973374 6.70887,4.874275 10.60902,-1.520083 16.73392,0.497857 6.1249,2.017941 14.2406,7.5207 18.03301,12.517184 3.79241,4.996485 -1.56016,9.941428 5.14871,14.815703 6.70886,4.874275 16.09911,3.38749 20.97338,-3.321375 4.87427,-6.708865 3.38697,-16.099099 -3.32189,-20.973374 -6.70886,-4.874275 -11.41481,1.160806 -17.45959,-1.0903 -6.04477,-2.251099 -13.22116,-8.048486 -16.87559,-12.845419 -3.65444,-4.796932 1.1284,-9.021267 -5.58047,-13.895542 -2.93512,-2.132496 -6.38369,-3.047058 -9.74252,-2.839745 z m -77.131718,2.257486 c -2.890369,0.09879 -5.783526,1.032131 -8.29935,2.859984 -6.708864,4.874274 -2.423234,11.214712 -6.432101,16.268007 -4.00886,5.053288 -11.740083,10.086867 -17.431519,12.080105 -5.691436,1.993238 -8.230739,-3.860686 -14.939603,1.013588 -6.708864,4.874275 -8.196508,14.264379 -3.322233,20.973243 4.874274,6.708864 14.264369,8.195991 20.973233,3.321716 6.708864,-4.874274 1.833057,-10.559463 5.644931,-15.761012 3.811874,-5.201548 11.552798,-11.219814 17.476657,-13.282612 5.923858,-2.062797 8.973287,4.556189 15.682153,-0.318086 6.70886,-4.874274 8.19599,-14.26437 3.32171,-20.973233 -3.04642,-4.193039 -7.856598,-6.346351 -12.673878,-6.1817 z M 238.08093,125.42987 c -6.40049,-0.0807 -12.38291,3.97 -14.46499,10.37798 -2.56256,7.88674 4.7237,9.62037 4.69722,16.06908 -0.0265,6.4487 -2.75153,15.86729 -6.33155,21.01809 -3.58002,5.15079 -9.93739,1.58844 -12.49994,9.47518 -2.56256,7.88675 1.75373,16.35779 9.64047,18.92035 7.88675,2.56255 16.35727,-1.75373 18.91983,-9.64047 2.56256,-7.88674 -4.63115,-10.4975 -4.35816,-16.94206 0.27299,-6.44454 3.56875,-15.06099 7.00163,-20.0189 3.43287,-4.95791 8.92876,-1.71466 11.49132,-9.60141 2.56255,-7.88674 -1.75373,-16.35726 -9.64047,-18.91982 -1.47877,-0.48048 -2.97832,-0.71939 -4.45536,-0.73802 z m -204.522128,5.21544 c -1.477036,0.0186 -2.976395,0.25763 -4.455159,0.73811 -7.886742,2.56256 -12.202706,11.03313 -9.640148,18.91988 2.562557,7.88674 9.917193,5.77041 13.484354,11.14463 3.567157,5.3742 5.965368,14.28264 6.1023,20.31146 0.136932,6.02883 -6.215529,6.63503 -3.652971,14.52177 2.562558,7.88675 11.033138,12.20271 18.919881,9.64015 7.886742,-2.56256 12.203223,-11.03315 9.640665,-18.91989 -2.562558,-7.88674 -9.476474,-5.00668 -13.245507,-10.23935 -3.769033,-5.23268 -7.100204,-14.45459 -7.231468,-20.72595 -0.131264,-6.27136 7.105849,-7.12582 4.543291,-15.01257 -2.082078,-6.40797 -8.064745,-10.45897 -14.465238,-10.37824 z m 128.824818,88.7589 c -8.29262,0 -7.68933,7.46482 -13.83059,9.43239 -6.14127,1.96758 -15.94114,2.2864 -21.94613,0.47328 -6.00498,-1.81312 -4.58159,-8.95972 -12.8742,-8.95972 -8.29261,0 -15.01517,6.72231 -15.015168,15.01492 3e-6,8.29261 6.722308,15.01517 15.014928,15.01517 8.29261,0 8.55302,-7.64897 14.76651,-9.38082 6.21349,-1.73185 15.42662,-1.2595 21.20268,0.47328 5.77607,1.73278 4.38962,7.96158 12.68224,7.96158 8.29261,0 15.01516,-6.72283 15.01516,-15.01544 0,-8.29261 -6.72282,-15.01464 -15.01543,-15.01464 z"
         transform="rotate(1.0506173,135.45963,135.28441)" /></g><g
       id="g9"
       style="stroke-width:3.96875;stroke-dasharray:none"><path
         id="path14"
         style="display:inline;fill:none;stroke:#000000;stroke-width:3.33827;stroke-linecap:butt;stroke-dasharray:none"
         d="m 134.99374,19.437861 c -8.29261,3e-6 -15.01526,6.72265 -15.01526,15.015262 0,8.292611 7.64878,8.552701 9.38063,14.766195 1.73185,6.213484 1.25986,15.426733 -0.47292,21.202797 -1.73278,5.776065 -7.96143,4.389338 -7.96143,12.68195 0,8.292612 6.72222,15.015261 15.01483,15.015261 8.29261,0 15.01526,-6.722649 15.01526,-15.015261 0,-8.292612 -7.46521,-7.68952 -9.43279,-13.830784 -1.96758,-6.141264 -2.28647,-15.9411 -0.47335,-21.946084 1.81311,-6.004984 8.95986,-4.581463 8.95986,-12.874074 0,-8.292612 -6.72221,-15.015264 -15.01483,-15.015262 z m 78.64843,56.585854 c -1.47703,0.01863 -2.97617,0.257592 -4.45493,0.738071 -7.88675,2.562558 -5.77031,9.917191 -11.14452,13.484352 -5.37421,3.567157 -14.28291,5.965408 -20.31173,6.10234 -6.02882,0.136932 -6.63473,-6.215529 -14.52147,-3.652971 -7.88674,2.562558 -12.20269,11.033163 -9.64013,18.919903 2.56256,7.88675 11.03317,12.20312 18.91991,9.64056 7.88674,-2.56255 5.00643,-9.47625 10.2391,-13.24528 5.23267,-3.76903 14.4546,-7.10035 20.72597,-7.23161 6.27136,-0.13127 7.12591,7.10573 15.01265,4.54317 7.88674,-2.56255 12.20268,-11.033598 9.64012,-18.920339 -2.08208,-6.407977 -8.06448,-10.458925 -14.46497,-10.378196 z M 56.998624,76.923484 c -6.400492,-0.08073 -12.383326,3.969782 -14.465403,10.37776 -2.562555,7.886743 1.753817,16.357786 9.64056,18.920346 7.886742,2.56255 10.497602,-4.63144 16.942156,-4.35845 6.444544,0.27299 15.060849,3.56881 20.018755,7.00168 4.957905,3.43287 1.714696,8.92839 9.601439,11.49095 7.886739,2.56256 16.357349,-1.75338 18.919909,-9.64012 2.56256,-7.88675 -1.75338,-16.357788 -9.64013,-18.920346 -7.88674,-2.562558 -9.620196,4.723962 -16.0689,4.697485 -6.448703,-0.02648 -15.867268,-2.751827 -21.018062,-6.331847 -5.150795,-3.58002 -1.588643,-9.937264 -9.475385,-12.499822 -1.478764,-0.48048 -2.977902,-0.719007 -4.454939,-0.737636 z m 58.688356,52.213066 c -4.81728,-0.16465 -9.6277,1.98885 -12.67413,6.18189 -4.87427,6.70886 1.51981,10.60905 -0.49813,16.73395 -2.01794,6.1249 -7.520723,14.24033 -12.517207,18.03274 -4.996485,3.79241 -9.941473,-1.55976 -14.815748,5.14911 -4.874275,6.70886 -3.387112,16.09858 3.321753,20.97286 6.708865,4.87427 16.099016,3.38711 20.973291,-3.32176 4.874271,-6.70886 -1.160951,-11.41507 1.090151,-17.45985 2.2511,-6.04477 8.04846,-13.22078 12.84539,-16.87521 4.79693,-3.65444 9.02127,1.12856 13.89555,-5.5803 4.87427,-6.70887 3.38711,-16.09902 -3.32175,-20.9733 -2.51583,-1.82785 -5.4088,-2.76134 -8.29917,-2.86013 z m 38.79348,0.55638 c -2.89037,0.0988 -5.78334,1.03228 -8.29916,2.86013 -6.70887,4.87428 -8.19603,14.264 -3.32176,20.97286 4.87428,6.70886 10.55961,1.83319 15.76116,5.64507 5.20155,3.81187 11.21943,11.55294 13.28223,17.4768 2.0628,5.92386 -4.55566,8.97275 0.31861,15.68161 4.87428,6.70886 14.264,8.19646 20.97286,3.32219 6.70886,-4.87428 8.19603,-14.26443 3.32175,-20.97329 -4.87427,-6.70887 -11.21468,-2.42339 -16.26798,-6.43226 -5.05329,-4.00886 -10.08713,-11.74016 -12.08036,-17.4316 -1.99324,-5.69143 3.86105,-8.23076 -1.01322,-14.93962 -3.04642,-4.19304 -7.85685,-6.34654 -12.67413,-6.18189 z"
         transform="matrix(1.1888642,0,0,1.1888642,-25.584803,-3.4212902)" /></g></g></svg>
